<svg width="86" height="86" viewBox="0 0 86 86" xmlns="http://www.w3.org/2000/svg" xmlns:xlink="http://www.w3.org/1999/xlink"><svg id="ico-400" width="18" height="18" viewBox="-112 120 18 18" x="18" y="50"><style>.ast0{fill:#f4f4f4}</style><path class="ast0" d="M-105 122v3.9l-.6.6c-.2.2-.7.9-.2 1.9.6 1.3 2.7 3.5 4.2 3.5.4 0 .8-.1 1.1-.4l.6-.5h4v5c-9.9-.2-13.7-4-14-14h4.9m.1-1h-5.2c-.5 0-.9.4-.9.9.2 10.6 4.5 14.9 15.1 15.1.5 0 .9-.4.9-.9v-5.2c0-.5-.4-.9-.9-.9h-4.4l-.9.8c-.1.1-.2.1-.4.1-1.2 0-4.1-2.9-3.3-3.7l.9-.9v-4.4c0-.5-.4-.9-.9-.9z"/><path class="ast0" d="M-101 125v1c.6 0 1 .4 1 1h1c0-1.1-.9-2-2-2zm0-4v1c2.8 0 5 2.2 5 5h1c0-3.3-2.7-6-6-6z"/></svg><svg width="18" height="18" viewBox="-1 -1 18 18" id="ico-approve" x="68"><g fill="#A2A2A2"><path d="M15 3v10H1V3h14m1-1H0v12h16V2z"/><path d="M0 5h16v1H0zm3 3h10v1H3zm0 2h5v1H3z"/></g></svg><svg width="18" height="18" viewBox="-1 -1 18 18" id="ico-approve-on" x="50" y="18"><g fill="#2277da"><path d="M15 3v10H1V3h14m1-1H0v12h16V2z"/><path d="M0 5h16v1H0zm3 3h10v1H3zm0 2h5v1H3z"/></g></svg><svg width="18" height="18" viewBox="-1 -1 18 18" id="ico-ask" y="50"><path fill="#FFF" d="M4 14h1v1H4zM5 4h1v1H5zm3 3h1v1H8zM7 8h1v1H7zm0 2h1v1H7zm2-6h1v3H9zM6 3h3v1H6zM3 13h1v3H3z"/><path fill="#FFF" d="M15 0H0v14h3v-1H1V1h13v12H5v1h10z"/></svg><svg width="50" height="50" viewBox="-1 -1 50 50" id="ico-exclusive"><path fill="#E8E8E8" d="M23.976 0C10.707 0-.049 10.756-.049 24.024s10.756 24.024 24.024 24.024S48 37.293 48 24.024 37.244 0 23.976 0zm-.005 45.074c-11.621 0-21.042-9.421-21.042-21.043 0-11.621 9.421-21.043 21.042-21.043 11.622 0 21.043 9.422 21.043 21.043 0 11.622-9.421 21.043-21.043 21.043z"/><path fill="#666" d="M23.929 21.262c3.323 0 6.017-2.688 6.017-6.001 0-3.314-2.693-6.002-6.017-6.002-3.322 0-6.017 2.688-6.017 6.002 0 3.313 2.694 6.001 6.017 6.001zm-.06-10.054a4.001 4.001 0 0 1 4.007 3.996 4.002 4.002 0 0 1-4.007 3.997 4.002 4.002 0 0 1-4.008-3.997 4.002 4.002 0 0 1 4.008-3.996zm1.048 12.069v-.027h-.859c-.093-.001-.183-.009-.277-.009-.093 0-.184.007-.276.009h-.563v.018c-6.259.272-11.052 3.55-11.052 7.629 0 1.335.012 3.342.012 3.342H35.82s.034-2.003.034-3.342c0-4.016-4.802-7.259-10.937-7.62zm8.931 8.958H25.91l-.911-5.019-2.057.079-.994 4.939h-8.089s-.008-.194-.008-1.083c0-2.684 4.309-5.6 9.091-5.909v1.007h1.976v-.988c4.95.393 8.954 3.254 8.954 5.891-.001.892-.024 1.083-.024 1.083z"/></svg><svg width="18" height="18" viewBox="-1 -1 18 18" id="ico-head" x="36" y="50"><path fill="#A2A2A2" d="M15.001 12.482l-4.348-2.062c1.384-1.089 1.852-3.229 1.852-4.428V3.495C12.505 1.841 10.216 0 8.01 0S3.512 1.841 3.512 3.495v2.497c0 1.091.498 3.298 1.895 4.42l-4.388 2.07s-.998.445-.998.999v.498H0v2h1v-.004c.007 0 .012.004.019.004H16v-2.498c0-.587-.999-.999-.999-.999zm.012 1.497H15v.851c-.017.09-.087.163-.181.163H1.201a.194.194 0 0 1-.194-.194v-1.097c.085-.098.32-.258.526-.351l4.586-2.173a.778.778 0 0 0 .155-1.31c-1.072-.863-1.742-2.807-1.742-3.824V3.612C4.532 2.514 6.223.986 8.01.986c1.785 0 3.412 1.527 3.412 2.626v2.432c0 1.011-.464 3.019-1.57 3.889A.777.777 0 0 0 10 11.247l4.484 2.102.037.016c.164.068.408.222.491.321v.293z"/></svg><svg width="18" height="18" viewBox="-1 -1 18 18" id="ico-head-on" x="50"><path fill="#888" d="M12 8a4 4 0 1 0 0 8 4 4 0 0 0 0-8zm-.608 6.076l-1.778-1.778.707-.707 1.07 1.07 2.422-2.422.707.707-3.128 3.13zM8.021 2C9.112 2 10 2.888 10 3.979c0 1.091-.888 1.979-1.979 1.979S6.042 5.07 6.042 3.979C6.042 2.888 6.93 2 8.021 2m0-2a3.98 3.98 0 1 0 0 7.958 3.98 3.98 0 0 0 0-7.958z"/><path fill="#888" d="M7.281 14H2v-1.717c.513-.434 2.285-1.109 4.973-1.252a5.09 5.09 0 0 1 .886-2.028C3.506 9.031 0 10.361 0 12v4h8.832a5.109 5.109 0 0 1-1.551-2z"/></svg><svg width="18" height="18" viewBox="-1 -1 18 18" id="ico-mail" x="68" y="18"><path fill="#A2A2A2" d="M15 3v10H1V3h14m1-1H0v12h16V2z"/><path fill="#A2A2A2" d="M1 3h1v1H1zm1 1h1v1H2zm1 1h1v1H3zm1 1h1v1H4zm1 1h1v1H5zm0 1h1v1H5zM4 9h1v1H4zm-1 1h1v1H3zm8-1h1v1h-1zm1 1h1v1h-1zM6 8h1v1H6zm1 1h1v1H7zm1 0h1v1H8zm1-1h1v1H9zm1 0h1v1h-1zm0-1h1v1h-1zm1-1h1v1h-1zm1-1h1v1h-1zm1-1h1v1h-1zm1-1h1v1h-1z"/></svg><svg width="18" height="18" viewBox="-1 -1 18 18" id="ico-mail-on" x="68" y="36"><path fill="#888" d="M0 1v13h16V1H0zm13.333 2L8 7 2.667 3h10.666zM14 12H2V4.5L8 9l6-4.5V12z"/></svg><svg width="18" height="18" viewBox="-1 -1 18 18" id="ico-phone" y="68"><g fill="#A2A2A2"><path d="M12 1v14H4V1h8m1-1H3v16h10V0z"/><path d="M3 3h10v1H3zm0 8h10v1H3zm4 2h2v1H7z"/></g></svg><svg width="18" height="18" viewBox="-1 -1 18 18" id="ico-phone-on" x="18" y="68"><path fill="#888" d="M2 0v16h12V0H2zm6 15a1 1 0 1 1 0-2 1 1 0 0 1 0 2zm4-3H4V2h8v10z"/></svg><svg width="18" height="18" viewBox="-1 -1 18 18" id="ico-setting" x="36" y="68"><path fill="#2277da" d="M8 3c2.757 0 5 2.243 5 5s-2.243 5-5 5-5-2.243-5-5 2.243-5 5-5m0-1a6 6 0 1 0 0 12A6 6 0 0 0 8 2z"/><path fill="#2277da" d="M8 7c.551 0 1 .449 1 1s-.449 1-1 1-1-.449-1-1 .449-1 1-1m0-1a2 2 0 1 0-.001 3.999A2 2 0 0 0 8 6zM7 13.91V16h2v-2.09c-.326.055-.659.09-1 .09s-.674-.035-1-.09zM9 2.09V0H7v2.09c.326-.055.659-.09 1-.09s.674.035 1 .09zM13.91 9H16V7h-2.09c.055.326.09.659.09 1s-.035.674-.09 1zM2.09 7H0v2h2.09C2.035 8.674 2 8.341 2 8s.035-.674.09-1zm10.797-2.473l1.477-1.477-1.414-1.414-1.477 1.477a6.007 6.007 0 0 1 1.414 1.414zm-9.774 6.946L1.636 12.95l1.414 1.414 1.477-1.477a6.007 6.007 0 0 1-1.414-1.414zm8.36 1.414l1.477 1.477 1.414-1.414-1.477-1.477a6.007 6.007 0 0 1-1.414 1.414zM4.527 3.113L3.05 1.636 1.636 3.05l1.477 1.477a6.007 6.007 0 0 1 1.414-1.414z"/></svg><svg width="18" height="18" viewBox="-1 -1 18 18" id="ico-vip" x="54" y="68"><path fill="#FFF" d="M16 16H0s.04-1.863.04-2.953c0-2.539 3.508-4.528 7.987-4.528s7.986 1.989 7.986 4.528c0 3.258-.018 2.961-.013 2.953zM1.209 14.921h13.619s.011-1.111.011-1.874c0-1.912-3.12-3.528-6.812-3.528-3.693 0-6.813 1.616-6.813 3.528 0 .769-.005 1.874-.005 1.874zM8.02 7.296c-2.018 0-3.66-1.637-3.66-3.648S6.002 0 8.02 0s3.661 1.636 3.661 3.648-1.643 3.648-3.661 3.648zM8.02 1a2.657 2.657 0 0 0-2.66 2.648 2.657 2.657 0 0 0 2.66 2.648 2.658 2.658 0 0 0 2.661-2.648A2.658 2.658 0 0 0 8.02 1z"/><path fill="none" stroke="#FFF" stroke-width="2" stroke-miterlimit="10" d="M8 9v2m0 1v4"/></svg></svg>