<?xml version="1.0" standalone="no"?><!DOCTYPE svg PUBLIC "-//W3C//DTD SVG 1.1//EN" "http://www.w3.org/Graphics/SVG/1.1/DTD/svg11.dtd"><svg t="1536650142556" class="icon" style="" viewBox="0 0 1024 1024" version="1.1" xmlns="http://www.w3.org/2000/svg" p-id="4741" xmlns:xlink="http://www.w3.org/1999/xlink" width="102" height="102"><defs><style type="text/css"></style></defs><path d="M512 0a512 512 0 1 0 512 512A512 512 0 0 0 512 0z m179.2 723.84c-64 67.968-155.264 64-180.992 62.464-22.272-1.152-151.808-10.112-203.008-113.28a196.096 196.096 0 0 1 1.152-175.232c35.584-62.592 100.48-71.424 101.248-118.016 0-40.832-49.024-67.072-38.4-83.584s47.744 10.24 91.648-9.216c34.304-15.104 35.968-41.472 60.288-42.24s29.056 28.416 65.664 44.544c46.336 20.224 88.32-4.48 95.104 9.216 8.576 17.152-61.056 49.408-57.216 89.6 3.2 33.664 54.912 34.304 89.6 75.648 50.048 59.648 46.208 185.088-25.088 260.096z" fill="#FFBD6C" p-id="4742"></path><path d="M627.2 387.84c-3.712-39.936 65.792-72.192 57.216-89.6-6.784-13.696-48.64 11.008-95.104-9.216-36.992-16.128-41.216-45.312-66.816-44.544s-25.6 27.136-60.288 42.24c-43.904 19.328-82.56-5.76-91.648 9.216s39.424 42.752 38.4 83.584c0 46.592-65.536 54.912-100.736 118.016A196.096 196.096 0 0 0 307.2 673.024c51.2 103.168 180.48 112.256 202.752 113.28 25.6 1.152 116.352 5.504 180.992-62.464 71.296-75.008 75.264-200.448 25.6-260.48-34.56-40.96-86.4-41.856-89.344-75.52z m-45.312 222.848h-39.936v41.088c0 7.68-2.816 12.8-10.88 13.696s-12.8-5.376-12.8-13.568v-41.216h-39.936c-8.96 0-16.256-2.56-16.128-12.8s7.552-11.392 15.872-11.136h39.168v-17.92h-39.424c-8.32 0-15.616-2.048-15.616-11.52s6.784-12.032 15.232-12.032h42.752a65.152 65.152 0 0 0-7.68-14.976l-38.4-38.4c-6.4-6.144-12.032-12.8-4.096-20.736s14.976-1.536 20.736 4.736c12.8 13.44 24.192 27.136 38.4 43.392 15.744-17.152 27.648-30.976 40.832-43.52a18.944 18.944 0 0 1 16.896-2.176c7.808 2.688 7.552 11.648 0 19.072-12.8 12.8-26.752 25.6-39.68 39.424a70.912 70.912 0 0 0-7.936 14.464h42.368c8.576 0 16.256 1.792 16 12.8s-7.68 11.264-15.744 11.136H542.72v17.92h39.168c8.064 0 15.616 1.024 15.744 11.008s-7.04 11.392-15.744 11.264z" fill="#FFFFFF" p-id="4743"></path><path d="M582.016 587.264h-39.168v-17.92h39.168c8.192 0 15.488-1.408 15.744-11.136s-7.424-12.8-16-12.8h-42.368a70.912 70.912 0 0 1 7.936-14.464c12.8-12.8 26.624-25.6 39.68-39.424 7.424-7.552 7.68-16.384 0-19.072a18.944 18.944 0 0 0-16.128 3.456c-12.8 12.8-25.6 26.496-40.832 43.52-14.464-16.256-26.496-29.952-38.4-43.392-5.76-6.272-12.8-12.8-20.736-4.736s-2.304 14.592 4.096 20.736c12.8 12.8 26.368 25.6 38.4 38.4a65.152 65.152 0 0 1 7.68 14.976h-42.752c-8.576 0-15.36 2.816-15.232 12.032s7.296 11.648 15.616 11.52h39.424v17.92h-39.168c-8.32 0-15.744 1.792-15.872 11.136s7.168 12.8 16.128 12.8h39.936v41.216c0 8.192 3.456 13.952 12.8 13.568s10.88-6.016 10.88-13.696v-41.088h39.936c8.832 0 16.128-2.304 16-12.8s-8.704-10.752-16.768-10.752z" fill="#FFBD6C" p-id="4744"></path></svg>