<?xml version="1.0" standalone="no"?><!DOCTYPE svg PUBLIC "-//W3C//DTD SVG 1.1//EN" "http://www.w3.org/Graphics/SVG/1.1/DTD/svg11.dtd"><svg t="1536649835372" class="icon" style="" viewBox="0 0 1024 1024" version="1.1" xmlns="http://www.w3.org/2000/svg" p-id="2039" xmlns:xlink="http://www.w3.org/1999/xlink" width="92" height="92"><defs><style type="text/css"></style></defs><path d="M564 859v39.3c27.4-3.8 54.1-10.1 79.4-19.2l-17.6-35.2c-19.8 6.8-40.5 11.8-61.8 15.1zM681.2 819.2l20.7 33.1c23.2-13 45.2-28.1 65.1-45.3 0.7 1.1-30-25.9-30-25.9-17.2 14.4-36 27.1-55.8 38.1zM642 564.2H538v-52h104v-39h-91l91-156h-39l-81.6 145.3h-1s-40-60.8-86.4-145.3h-39l91 156h-91v39h104v52H395v39h104v104h39v-104h104v-39zM777.6 741.2l32.8 21.9c16.3-19.3 30.7-40.2 43-62.4L816.7 686c-11.3 19.7-24.4 38.2-39.1 55.2z" p-id="2040" fill="#d9d022"></path><path d="M512 122.2c-215.4 0-390 174.6-390 390 0 211 167.6 382.8 377 389.6v-39.3c-187.8-6.9-338-160.9-338-350.3 0-193.9 157.2-351 351-351s351 157.1 351 351c0 17.7-1.4 35-4 52h-61l78 78s25.9-40.8 25.9-130c0.1-215.4-174.5-390-389.9-390z" p-id="2041" fill="#d9d022"></path></svg>