<?xml version="1.0" standalone="no"?><!DOCTYPE svg PUBLIC "-//W3C//DTD SVG 1.1//EN" "http://www.w3.org/Graphics/SVG/1.1/DTD/svg11.dtd"><svg t="1536649568111" class="icon" style="" viewBox="0 0 1024 1024" version="1.1" xmlns="http://www.w3.org/2000/svg" p-id="1530" xmlns:xlink="http://www.w3.org/1999/xlink" width="64" height="64"><defs><style type="text/css"></style></defs><path d="M374.212435 256.440706h249.46397c76.765529 0 134.331676-166.298647 134.331677-166.298647 0-51.198352-6.399794-89.565117-89.565118-89.565118-89.533118 0-108.7325 57.598146-172.698441 57.598146-57.566147 0-89.533118-44.798558-166.298647-57.598146-76.765529-6.399794-89.565117 44.798558-89.565117 89.565118 0 0 57.598146 166.298647 134.331676 166.298647z m255.863764 51.166353h-255.863764C86.3817 307.607059 16.015964 876.868736 16.015964 876.868736 16.015964 953.666264 73.582112 1024 150.347641 1024h709.993147c76.765529 0 134.331676-76.765529 134.331676-147.131264-6.399794 0-76.765529-569.261677-364.596265-569.261677z m31.99897 434.962c19.167383 0 31.966971 12.799588 31.966972 31.99897 0 19.167383-12.799588 31.966971-31.998971 31.966971h-127.931882v83.133324c0 19.199382-12.799588 31.99897-31.99897 31.99897-19.167383 0-31.966971-12.799588-31.966971-31.99897v-83.133324h-127.899883c-19.199382 0-31.99897-12.799588-31.99897-31.99897s12.799588-31.99897 31.99897-31.99897h127.899883v-38.366765h-127.899883c-19.199382 0-31.99897-12.799588-31.99897-31.998971 0-19.167383 12.799588-31.966971 31.99897-31.966971h89.533118l-89.533118-159.898853c-12.799588-12.799588-6.399794-31.99897 12.799588-38.398764 12.799588-12.799588 31.966971-6.399794 38.366765 6.399794l108.7325 191.897823h6.399794l108.7325-191.865824c6.399794-12.799588 25.599176-19.199382 44.798558-12.799588 12.767589 6.399794 19.167383 25.599176 12.767589 44.766559l-95.932912 159.898853h83.133324c19.199382 0 31.99897 12.799588 31.998971 31.99897s-12.799588 31.99897-31.998971 31.99897h-127.931882v38.366766h127.931882z" p-id="1531" fill="#d9d022"></path></svg>