<?xml version="1.0" encoding="UTF-8" standalone="no"?>
<!-- Created with Inkscape (http://www.inkscape.org/) -->

<svg
   xmlns:dc="http://purl.org/dc/elements/1.1/"
   xmlns:cc="http://creativecommons.org/ns#"
   xmlns:rdf="http://www.w3.org/1999/02/22-rdf-syntax-ns#"
   xmlns:svg="http://www.w3.org/2000/svg"
   xmlns="http://www.w3.org/2000/svg"
   xmlns:sodipodi="http://sodipodi.sourceforge.net/DTD/sodipodi-0.dtd"
   xmlns:inkscape="http://www.inkscape.org/namespaces/inkscape"
   width="210mm"
   height="297mm"
   viewBox="0 0 744.09448819 1052.3622047"
   id="svg2"
   version="1.1"
   inkscape:version="0.91 r13725"
   sodipodi:docname="1_run_0.svg">
  <defs
     id="defs4" />
  <sodipodi:namedview
     id="base"
     pagecolor="#ffffff"
     bordercolor="#666666"
     borderopacity="1.0"
     inkscape:pageopacity="0.0"
     inkscape:pageshadow="2"
     inkscape:zoom="1.3791796"
     inkscape:cx="-80.684715"
     inkscape:cy="5.0824385"
     inkscape:document-units="px"
     inkscape:current-layer="layer1"
     showgrid="false"
     inkscape:window-width="1440"
     inkscape:window-height="815"
     inkscape:window-x="10"
     inkscape:window-y="0"
     inkscape:window-maximized="0" />
  <metadata
     id="metadata7">
    <rdf:RDF>
      <cc:Work
         rdf:about="">
        <dc:format>image/svg+xml</dc:format>
        <dc:type
           rdf:resource="http://purl.org/dc/dcmitype/StillImage" />
        <dc:title></dc:title>
      </cc:Work>
    </rdf:RDF>
  </metadata>
  <g
     inkscape:label="Layer 1"
     inkscape:groupmode="layer"
     id="layer1">
    <g
       id="g3500"
       transform="translate(40.603849,-34.803299)">
      <path
         style="fill:#fefefe"
         d="m 0,1038.3622 0,-14 14,0 14,0 0,14 0,14 -14,0 -14,0 0,-14 z"
         id="path3516"
         inkscape:connector-curvature="0" />
      <path
         style="fill:#d4f6a0"
         d="M 9.6549876,1050.5335 C 8.4631371,1049.2165 8,1046.8378 8,1042.0335 c 0,-4.5221 -0.3865841,-6.6713 -1.2,-6.6713 -0.9333333,0 -0.9333333,-0.2667 0,-1.2 0.66,-0.66 1.2,-2.3903 1.2,-3.845 0,-3.4105 2.851654,-5.955 6.673753,-5.955 3.565568,0 6.326247,2.6745 6.326247,6.1287 0,1.3592 0.54,3.0113 1.2,3.6713 0.933333,0.9333 0.933333,1.2 0,1.2 -0.81646,0 -1.2,2.1878 -1.2,6.845 0,5.3614 -0.396382,7.2037 -1.828741,8.5 -2.427287,2.1967 -7.454135,2.1049 -9.5162714,-0.1737 z M 11.5,1027.3622 c 0.339919,-0.55 0.141476,-1 -0.440983,-1 -0.582459,0 -1.059017,0.45 -1.059017,1 0,0.55 0.198442,1 0.440983,1 0.242541,0 0.719098,-0.45 1.059017,-1 z m 7.5,0 c 0,-0.55 -0.476558,-1 -1.059017,-1 -0.582459,0 -0.780902,0.45 -0.440983,1 0.339919,0.55 0.816476,1 1.059017,1 0.242541,0 0.440983,-0.45 0.440983,-1 z"
         id="path3514"
         inkscape:connector-curvature="0" />
      <path
         style="fill:#a5e05e"
         d="M 9.6549876,1050.5335 C 8.4631371,1049.2165 8,1046.8378 8,1042.0335 c 0,-4.5221 -0.3865841,-6.6713 -1.2,-6.6713 -0.9333333,0 -0.9333333,-0.2667 0,-1.2 0.66,-0.66 1.2,-2.3903 1.2,-3.845 0,-3.4105 2.851654,-5.955 6.673753,-5.955 3.565568,0 6.326247,2.6745 6.326247,6.1287 0,1.3592 0.54,3.0113 1.2,3.6713 0.933333,0.9333 0.933333,1.2 0,1.2 -0.81646,0 -1.2,2.1878 -1.2,6.845 0,5.3614 -0.396382,7.2037 -1.828741,8.5 -2.427287,2.1967 -7.454135,2.1049 -9.5162714,-0.1737 z m 2.6996324,-3.0097 c -2.044439,-0.4578 -2.7338786,0.4077 -1.950641,2.4488 0.596981,1.5557 0.767784,1.5385 2.056428,-0.2069 1.217643,-1.6492 1.203512,-1.9487 -0.105787,-2.2419 z m 3.784596,-8.1283 2.360784,-1.9668 -4.25,-0.033 c -3.594423,-0.028 -4.25,0.2752 -4.25,1.9667 0,2.6099 3.026673,2.6263 6.139216,0.033 z m -1.498233,-13.0333 c 1.232541,0 2.519098,0.45 2.859017,1 0.339919,0.55 1.096576,1 1.681462,1 0.670587,0 0.603553,-0.5541 -0.181462,-1.5 -1.945142,-2.3438 -9,-1.7112 -9,0.807 0,0.7312 0.397179,0.6958 1.2,-0.107 0.66,-0.66 2.208442,-1.2 3.440983,-1.2 z"
         id="path3512"
         inkscape:connector-curvature="0" />
      <path
         style="fill:#8ed523"
         d="M 9.6549876,1050.5335 C 8.4631371,1049.2165 8,1046.8378 8,1042.0335 c 0,-4.5221 -0.3865841,-6.6713 -1.2,-6.6713 -0.9333333,0 -0.9333333,-0.2667 0,-1.2 0.66,-0.66 1.2,-2.3903 1.2,-3.845 0,-3.4105 2.851654,-5.955 6.673753,-5.955 3.565568,0 6.326247,2.6745 6.326247,6.1287 0,1.3592 0.54,3.0113 1.2,3.6713 0.933333,0.9333 0.933333,1.2 0,1.2 -0.81646,0 -1.2,2.1878 -1.2,6.845 0,5.3614 -0.396382,7.2037 -1.828741,8.5 -2.427287,2.1967 -7.454135,2.1049 -9.5162714,-0.1737 z m 5.0326844,0.1064 c -2.30577,-0.3465 -2.598926,-0.6797 -1.627555,-1.8501 0.963121,-1.1605 0.787698,-1.4276 -0.937672,-1.4276 -2.027205,0 -2.8667601,1.9224 -1.455778,3.3333 0.366666,0.3667 2.054166,0.5993 3.75,0.5169 l 3.083333,-0.1499 -2.812328,-0.4226 z m 5.100091,-3.4144 c -0.249648,-0.749 -0.702941,-0.2957 -1.05655,1.0565 -0.434974,1.6634 -0.304831,2.0538 0.437237,1.3118 0.581102,-0.5812 0.859794,-1.6469 0.619313,-2.3683 z m -2.973312,-6.8633 c 1.276044,0 2.185549,-0.6242 2.185549,-1.5 0,-1.1111 -1.166667,-1.5 -4.5,-1.5 l -4.5,0 0,3.6743 0,3.6743 2.314451,-2.1743 c 1.272948,-1.1959 3.297948,-2.1743 4.5,-2.1743 z m 2.14568,-13.548 c -1.540487,-1.8562 -6.011959,-1.8685 -8.519001,-0.023 -1.8512653,1.3624 -1.8570018,1.4612 -0.123913,2.1328 0.99947,0.3873 2.32697,0.1944 2.95,-0.4286 1.904137,-1.9042 4.872874,-1.305 5.535963,1.1172 0.517325,1.8898 0.675662,1.9621 0.988956,0.452 0.205158,-0.989 -0.169244,-2.4515 -0.832005,-3.25 z"
         id="path3510"
         inkscape:connector-curvature="0" />
      <path
         style="fill:#68aa28"
         d="M 9.6549876,1050.5335 C 8.4631371,1049.2165 8,1046.8378 8,1042.0335 c 0,-4.5221 -0.3865841,-6.6713 -1.2,-6.6713 -0.9333333,0 -0.9333333,-0.2667 0,-1.2 0.66,-0.66 1.2,-2.3903 1.2,-3.845 0,-3.4105 2.851654,-5.955 6.673753,-5.955 3.565568,0 6.326247,2.6745 6.326247,6.1287 0,1.3592 0.54,3.0113 1.2,3.6713 0.933333,0.9333 0.933333,1.2 0,1.2 -0.81646,0 -1.2,2.1878 -1.2,6.845 0,5.3614 -0.396382,7.2037 -1.828741,8.5 -2.427287,2.1967 -7.454135,2.1049 -9.5162714,-0.1737 z M 18.8,1050.1622 c 0.66,-0.66 1.193109,-1.8975 1.184687,-2.75 -0.01301,-1.3167 -0.152043,-1.3339 -0.923903,-0.1141 -0.738497,1.1671 -1.765267,1.2398 -5.484688,0.3887 C 10.16721,1046.9068 9,1046.9359 9,1047.8009 c 0,3.2489 7.181908,4.9794 9.8,2.3613 z m 0.01642,-10.05 c 0.30431,-2.6447 0.141596,-2.75 -4.249998,-2.75 -4.504178,0 -4.566422,0.045 -4.566422,3.3172 l 0,3.3173 4.25,-0.5673 c 3.725671,-0.4972 4.289038,-0.9065 4.566422,-3.3172 z m -5.009716,-10.9388 c 1.782333,-2.4705 4.070947,-2.2759 5.162134,0.4388 0.853215,2.1227 0.907976,2.134 0.967776,0.2 0.03486,-1.1275 -0.476614,-2.59 -1.136614,-3.25 -2.609614,-2.6096 -9.8,-0.6517 -9.8,2.6685 0,3.6106 2.179216,3.5846 4.806704,-0.057 z"
         id="path3508"
         inkscape:connector-curvature="0" />
      <path
         style="fill:#596c58"
         d="M 9.6549876,1050.5335 C 8.4631371,1049.2165 8,1046.8378 8,1042.0335 c 0,-4.5221 -0.3865841,-6.6713 -1.2,-6.6713 -0.9333333,0 -0.9333333,-0.2667 0,-1.2 0.66,-0.66 1.2,-2.3903 1.2,-3.845 0,-3.4105 2.851654,-5.955 6.673753,-5.955 3.565568,0 6.326247,2.6745 6.326247,6.1287 0,1.3592 0.54,3.0113 1.2,3.6713 0.933333,0.9333 0.933333,1.2 0,1.2 -0.81646,0 -1.2,2.1878 -1.2,6.845 0,5.3614 -0.396382,7.2037 -1.828741,8.5 -2.427287,2.1967 -7.454135,2.1049 -9.5162714,-0.1737 z M 18.8,1050.1622 c 2.46598,-2.466 1.324732,-3.5684 -3.169684,-3.0618 -2.651303,0.2988 -4.640765,0.054 -5.059017,-0.6228 -0.468585,-0.7582 0.770619,-1.1154 3.869684,-1.1154 l 4.559017,0 0,-4 0,-4 -4.75,0 -4.75,0 0,5.7459 c 0,3.1602 0.3640576,6.3084 0.809017,6.9959 1.031292,1.5934 6.912915,1.6281 8.490983,0.05 z m -4.3,-18.8 c 1.013385,0 2.665452,0.7447 3.671259,1.655 1.738128,1.573 1.828741,1.4838 1.828741,-1.8 0,-4.2725 -1.486562,-5.855 -5.5,-5.855 -4.013438,0 -5.5,1.5825 -5.5,5.855 0,3.2838 0.090613,3.373 1.828741,1.8 1.005807,-0.9103 2.657874,-1.655 3.671259,-1.655 z"
         id="path3506"
         inkscape:connector-curvature="0" />
      <path
         style="fill:#457530"
         d="M 9.6549876,1050.5335 C 8.4631371,1049.2165 8,1046.8378 8,1042.0335 c 0,-4.5221 -0.3865841,-6.6713 -1.2,-6.6713 -0.9333333,0 -0.9333333,-0.2667 0,-1.2 0.66,-0.66 1.2,-2.3903 1.2,-3.845 0,-3.4105 2.851654,-5.955 6.673753,-5.955 3.565568,0 6.326247,2.6745 6.326247,6.1287 0,1.3592 0.54,3.0113 1.2,3.6713 0.933333,0.9333 0.933333,1.2 0,1.2 -0.81646,0 -1.2,2.1878 -1.2,6.845 0,5.3614 -0.396382,7.2037 -1.828741,8.5 -2.427287,2.1967 -7.454135,2.1049 -9.5162714,-0.1737 z M 18.8,1050.1622 c 2.46598,-2.466 1.324732,-3.5684 -3.169684,-3.0618 -2.651303,0.2988 -4.640765,0.054 -5.059017,-0.6228 -0.467677,-0.7568 0.74285,-1.1154 3.764649,-1.1154 l 4.453981,0 0.379511,-3.9796 c 0.247901,-2.5994 -0.06247,-4.1491 -0.894964,-4.4686 C 17.573514,1036.645 17,1035.677 17,1034.7627 c 0,-1.3483 -0.676159,-1.5525 -3.581203,-1.081 -3.050231,0.4949 -3.402743,0.3661 -2.377555,-0.8692 1.60277,-1.9312 4.873627,-1.8373 7.130017,0.2047 1.738128,1.573 1.828741,1.4838 1.828741,-1.8 0,-1.9003 -0.54,-3.995 -1.2,-4.655 -1.64684,-1.6468 -7.295961,-1.5123 -8.723504,0.2078 -1.3841708,1.6679 -1.1384197,9.7485 0.270001,8.8781 0.540033,-0.3338 0.637792,-0.07 0.222716,0.6021 -1.1754508,1.9019 -1.4212991,12.4847 -0.322026,13.862 1.271025,1.5924 6.977016,1.6258 8.552813,0.05 z"
         id="path3504"
         inkscape:connector-curvature="0" />
      <path
         style="fill:#375932"
         d="M 9.6549876,1050.5335 C 8.4631371,1049.2165 8,1046.8378 8,1042.0335 c 0,-4.5221 -0.3865841,-6.6713 -1.2,-6.6713 -0.9333333,0 -0.9333333,-0.2667 0,-1.2 0.66,-0.66 1.2,-2.3903 1.2,-3.845 0,-3.4105 2.851654,-5.955 6.673753,-5.955 3.565568,0 6.326247,2.6745 6.326247,6.1287 0,1.3592 0.54,3.0113 1.2,3.6713 0.933333,0.9333 0.933333,1.2 0,1.2 -0.81646,0 -1.2,2.1878 -1.2,6.845 0,5.3614 -0.396382,7.2037 -1.828741,8.5 -2.427287,2.1967 -7.454135,2.1049 -9.5162714,-0.1737 z m 9.1198604,-0.4213 c 1.459314,-1.7888 1.573846,-21.6249 0.134872,-23.3588 -1.416354,-1.7066 -7.070208,-1.8307 -8.70972,-0.1912 -1.6755213,1.6755 -1.6291578,10.1759 0.05,9.1671 0.912762,-0.5484 0.894354,-0.3122 -0.06823,0.8756 -0.7250263,0.8947 -1.1750263,3.1185 -0.9999995,4.942 0.306795,3.1962 0.4898013,3.3263 5.0927655,3.6211 2.67066,0.171 4.517396,0.7218 4.190983,1.25 -0.775717,1.2551 -5.113945,1.2027 -7.531259,-0.091 C 9.3485205,1045.4784 9,1045.6225 9,1047.127 c 0,1.0094 0.54,2.3752 1.2,3.0352 1.575582,1.5756 7.27583,1.5423 8.574848,-0.05 z m -1.352253,-14.6074 c -0.614117,-2.0332 -1.176396,-2.282 -4.08971,-1.8092 -1.991893,0.3232 -3.139153,0.1622 -2.796276,-0.3926 0.908179,-1.4695 6.083333,-1.1037 7.435487,0.5256 0.669342,0.8065 0.979728,2.044 0.689746,2.75 -0.326047,0.7938 -0.798939,0.384 -1.239247,-1.0738 z"
         id="path3502"
         inkscape:connector-curvature="0" />
    </g>
  </g>
</svg>
